<svg width="564.000000" height="486.281250" viewBox="0 0 564 486.281" fill="none" xmlns="http://www.w3.org/2000/svg" xmlns:xlink="http://www.w3.org/1999/xlink">
	<desc>
			Created with Pixso.
	</desc>
	<defs>
		<linearGradient x1="31.000336" y1="382.281311" x2="6.500290" y2="486.281342" id="paint_linear_7_86_0" gradientUnits="userSpaceOnUse">
			<stop stop-color="#F0D98D"/>
			<stop offset="1.000000" stop-color="#D8C17E"/>
		</linearGradient>
	</defs>
	<path id="Main Text" d="M370.66 334.54Q371.36 335.1 372.77 335.39Q372.66 329.67 366.36 306.41Q395.12 315.9 395.29 315.42Q395.3 315.38 395.13 315.28Q396.59 314.4 397.06 314.13Q397.1 314.15 397.1 314.15Q397.3 314.02 397.29 314.01Q397.29 314 397.06 314.13Q396.22 313.7 375.16 304.45Q369.57 302 364.5 299.66Q363.5 296.04 362.36 292.07Q359.69 282.79 361.24 260.01Q362.64 238.92 365.88 227.53Q366.44 225.42 367.43 213.6Q368.27 203.76 370.38 201.09Q372.63 198.28 385.57 192.51Q397.94 187.17 403.14 186.32Q403.81 184.41 403.98 183.92Q403.99 183.93 403.99 183.93Q404.05 183.76 404.04 183.76L403.98 183.92Q403.7 183.08 403.14 181.68Q402.58 180.28 402.3 179.43Q399.07 178.87 375.86 184.21Q377.27 173.95 383.74 157.21Q393.16 133.17 394.43 129.37Q394.57 129.23 395.13 128.95Q403.43 168.18 406.38 176.62Q409.47 200.67 411.58 217.96Q426.77 271.54 422.41 315.7Q422.27 316.54 424.8 328.5L418.75 363.37L419.6 364.21Q422.27 362.81 423.53 357.04Q423.68 356.06 424.24 352.26Q424.8 349.31 425.22 347.76Q426.91 341.85 428.88 328.78Q430.85 315.56 432.39 310.07L431.55 286.87Q433.8 258.89 429.58 234.84Q429.86 233.43 430.43 230.76Q424.55 191.11 424.78 191.07Q424.79 191.07 424.8 191.1Q424.66 189.56 422.41 165.51Q420.16 155.39 415.94 125.85Q412.43 99.98 408.35 86.06Q406.8 80.85 407.08 72Q407.5 61.31 407.22 58.92Q404.55 35.85 405.96 22.78Q407.36 10.26 407.93 3.93L407.93 0Q407.36 0.28 405.96 0.7Q403.71 4.78 402.44 13.07Q400.75 24.18 399.91 27.28Q398.36 32.76 394.99 50.2Q392.03 64.82 389.5 71.71Q389.36 73.54 388.94 77.06Q388.52 80.71 388.38 82.54Q386.97 86.76 384.58 94.07Q381.77 102.65 380.78 105.75L380.78 110.53Q338.58 226.38 358.88 297.03Q333.52 284.94 322.99 276.04Q306.53 261.98 292.89 236.39L288.96 232.31Q288.25 229.78 286.99 225.14Q285.44 219.93 284.88 217.96Q283.75 215.29 280.66 210.37Q277.85 206.01 276.86 203.48Q277.14 199.96 277.28 198.28Q276.3 195.32 274.47 186.46Q272.78 178.59 270.96 174.23Q271.82 173.24 272.25 172.1Q272.8 170.62 272.64 168.89Q272.36 165.65 272.5 165.51L272.93 164.67Q274.75 163.4 283.33 163.82Q284.88 163.68 287.69 163.4Q290.78 163.12 292.19 163.12Q298.94 165.93 305.27 185.48Q311.32 204.6 308.64 210.79Q309.56 211.5 310.06 211.89Q310.15 212.39 310.35 212.44Q310.46 212.46 310.61 212.34Q310.54 212.27 310.06 211.89Q309.67 209.72 311.32 199.12Q312.86 189.56 307.8 169.45Q306.53 164.53 307.52 156.51Q308.5 148.5 307.38 144.28Q300.91 141.32 287.69 141.89Q268.99 142.73 267.72 142.59Q265.19 133.31 271.94 113.62Q278.41 94.21 284.88 89.29L294.16 90.14Q295.99 90.7 304.57 96.89Q311.6 101.95 315.39 100.96Q325.94 110.67 339.02 144.56Q337.61 146.95 339.44 157.78Q340.28 158.2 340.99 158.62Q345.07 138.23 337.89 112.92Q336.91 109.68 336.91 97.87Q336.91 87.6 334.24 83.25Q332.22 80.07 329.34 78.22Q325.22 75.57 319.33 75.65Q319.33 75.65 319.33 75.65Q319.37 75.59 314.13 72.28Q308.78 68.9 307.8 69.32Q302.03 68.2 287.13 58.78Q272.78 49.78 265.75 48.79Q263.5 51.18 262.52 52.45Q267.3 73.96 244.1 126.56Q235.08 146.97 235.94 147.39Q235.99 147.42 236.08 147.37Q236.36 148.78 236.93 153.84Q237.21 158.06 238.47 161.01Q239.32 162.98 241.85 166.07Q245.08 169.73 245.64 170.71Q247.61 173.81 250 179.43Q252.82 186.6 253.66 188.29Q253.66 188.29 253.67 188.29Q254.05 188.14 266.46 218.81Q272.5 233.57 293.32 263.67L300.21 274.07Q303.44 276.6 310.75 280.4Q318.07 284.34 321.44 286.87Q339.02 300.37 339.44 300.51Q347.18 301.07 351.11 301.35Q356.55 303.17 361.33 304.75Q361.42 305.02 361.52 305.29Q367 320.9 367.85 322.17Q366.86 323.15 368.13 328.07Q369.25 332.71 370.66 334.54ZM496.1 23.2Q494.83 16.73 492.02 13.92Q491.03 17.57 493.28 25.59Q495.68 34.73 495.68 36.98Q495.81 112.31 496.34 112.31Q496.36 112.31 496.38 112.21L496.8 133.02Q495.93 132.57 459.96 179.01L460.1 180.14L460.24 181.12Q464.18 182.81 470.5 186.46Q476.83 190.26 480.07 191.67L488.78 193.07Q490.33 193.64 493.57 196.17Q496.37 198.41 499.32 198.84Q499.15 199.05 505.8 230.34L506.08 243.28Q506.78 244.96 509.03 249.18Q511.28 253.4 511.99 255.23L513.68 267.6Q513.66 267.56 513.66 267.56Q513.59 267.57 523.52 307.96L522.82 312.75Q522.53 321.46 520.43 332.57Q517.19 348.32 517.05 349.87L517.33 350.29L518.46 350.29Q538.57 310.92 520.57 224.57Q520 221.48 520.57 208.96Q521.13 197.71 519.44 194.48Q518.46 192.66 491.87 175.16Q492.43 174.79 494.97 171.84L495.23 169.15Q495.68 169.54 502.57 164.95L505.8 158.76Q508.05 156.23 517.75 150.89Q518.92 150.06 519.48 148.94Q520.55 146.8 519.44 143.57Q517.61 137.67 516.91 126.56Q516.21 114.32 514.8 108.56Q513.39 102.65 506.5 59.06Q506.08 56.67 506.08 50.48Q505.94 45.7 505.1 43.17Q504.53 41.76 502.28 38.81Q499.89 35.71 499.33 34.45Q497.78 31.35 496.1 23.2ZM233.69 176.34Q234.25 179.85 232.99 187.17Q232.57 189.7 233.13 195.18Q233.83 200.67 233.41 203.06Q232.57 208.54 230.88 219.65Q230.18 224.29 230.88 237.09Q231.44 249.04 230.03 255.79Q221.03 299.95 217.8 308.95Q209.17 332.91 208.92 335.13L207.68 334.26Q215.55 299.67 213.16 293.06L214.85 293.06Q214.99 291.51 216.25 287.85Q217.52 283.78 217.8 281.81Q218.64 276.89 217.1 260.15Q216.53 254.1 218.08 236.81Q219.35 221.9 217.38 213.89Q216.53 210.09 216.39 197.29Q216.25 187.59 212.74 182.53Q208.24 175.92 183.63 166.64Q160.99 158.06 148.75 156.79Q147.49 154.68 146.22 152.43L145.52 152.85Q146.08 212.2 143.41 264.09L144.82 273.93Q145.52 278.57 145.1 287.29Q144.67 296.01 145.52 300.93Q148.61 320.06 148.05 321.6L147.77 321.6L146.64 320.9L145.94 320.9Q145.8 316.4 143.13 309.09Q140.32 301.07 139.75 296.57Q139.61 293.34 138.63 277.17Q139.61 274.35 139.75 273.93Q139.33 271.82 137.64 266.9Q135.96 261.84 135.39 259.45Q134.97 256.92 135.53 252.14Q136.24 247.5 135.39 245.39Q134.69 243.28 133.28 224.71Q132.44 213.75 125.69 198.42L126.39 194.34Q127.52 187.31 125.97 176.62Q125.98 176.64 125.99 176.64Q126.21 176.7 128.22 169.87Q128.08 168.89 128.08 166.92Q127.94 164.95 127.8 163.96Q127.66 155.25 128.92 148.07L128.5 138.79Q128.36 132.46 128.22 129.37Q131.03 112.64 126.82 81.28Q126.96 80.29 127.52 78.18Q127.94 76.21 128.22 75.09Q129.21 69.46 124.57 59.9Q124.57 59.9 124.57 59.9Q124.65 59.8 94.19 37.96Q90.96 35.57 77.17 28.4Q66.49 22.78 61.71 17.29Q62.12 16.46 62.81 14.81Q63.24 15.32 75.07 21.23L79.71 20.53Q84.63 24.04 94.75 28.82Q106.43 34.31 110.08 36.42Q109.98 36.35 109.98 36.32Q110.09 35.96 127.52 40.78Q148.47 46.68 164.64 52.31Q178.14 57.09 181.66 54.84Q197.41 63.56 206.97 63.56Q208.8 69.89 214.14 96.89L214.57 107.71Q219.91 122.76 216.39 127.54Q212.6 132.6 202.75 137.39Q191.93 142.73 188.55 145.96L188.55 146.38Q188.69 146.39 201.21 153.14Q208.24 156.93 217.8 164.53Q229.05 173.39 233.69 176.34ZM62.81 14.81Q62.82 14.78 62.83 14.76Q62.8 14.76 62.8 14.77Q62.79 14.78 62.81 14.81ZM208.92 335.13Q208.89 335.34 208.94 335.36Q208.98 335.37 209.08 335.25L208.92 335.13ZM444.21 59.34Q441.96 42.18 440.41 40.07Q438.02 48.23 439 65.39Q439.99 83.81 438.58 90.98Q432.96 119.95 437.88 166.92L436.75 175.21Q437.46 178.45 437.74 183.51Q438.02 190.82 438.16 192.93Q438.86 199.26 441.11 209.95Q443.64 221.62 444.35 227.25Q444.63 229.07 444.91 236.95Q445.19 243.56 446.18 247.5L446.18 261.28L448.28 269.85Q448.43 270.98 447.86 274.35Q447.58 277.31 448 278.85Q448.85 282.23 448.99 287.57Q448.99 293.06 450.11 297Q453.49 308.39 454.47 324.14L455.88 324.14L456.16 323.71L456.16 323.43L456.3 323.43Q455.74 321.46 456.16 318.09Q456.58 314.43 456.3 313.31Q455.18 308.67 453.77 295.87L454.47 287.57Q454.89 287.29 455.88 286.45Q451.94 267.6 455.18 246.09L455.32 243.98L455.32 243.14L455.46 243L455.46 241.87L455.6 239.76L455.6 239.06L455.74 238.64L455.74 238.35Q455.67 238.61 455.67 238.6Q455.66 238.6 455.74 238.21L455.74 237.79L456.3 229.35Q453.07 215.29 455.6 196.17L456.16 188.43L456.3 184.5L456.44 184.21L456.44 182.53L456.58 180.7L453.35 132.89L453.07 115.17L450.11 110.95Q451.94 108.28 447.3 93.93L447.3 81.56Q446.6 79.31 444.21 59.34ZM53.97 316L53.97 315.98Q54.25 315.84 54.96 315.7Q55.66 315.56 56.08 315.56L56.78 315.56Q54.82 292.92 54.82 292.21Q48.63 268.45 52.57 223.17Q57.21 171.28 55.24 153.7Q81.11 150.75 89.13 160.87Q93.49 166.35 98.55 193.35Q98.85 193.96 98.87 194.06L98.83 194.06Q98.85 194.08 98.86 194.08Q98.87 194.07 98.87 194.06L100.52 194.06Q100.62 193.63 100.71 193.2Q104.06 177.83 100.1 160.87Q95.17 140.06 96.02 137.67Q94.19 134.71 92.5 134.01Q92.36 133.87 92.22 133.59Q92.08 133.31 92.08 133.17Q89.97 132.32 81.25 132.89Q71.97 133.45 69.3 132.75Q61.42 130.5 56.08 128.81Q54.25 125.43 56.36 86.34Q62.41 81.98 101.22 86.76Q105.44 98.85 110.08 112.35Q110.64 113.48 112.89 116.43Q114.86 118.96 115.28 121.21L114.58 144.84Q114.58 159.71 114.82 159.72Q114.84 159.72 114.86 159.6L115.28 160.45Q116.97 158.76 118.38 146.95Q119.64 135.84 119.36 130.35Q119.22 128.39 120.63 121.5Q121.89 114.75 121.75 111.93Q121.61 110.67 120.21 103.21Q119.08 97.17 119.36 94.78Q122.32 67.78 121.33 64.26Q117.25 61.87 116.97 59.9Q116.69 59.76 116.27 59.62Q115.99 59.48 115.72 59.48Q115.68 59.17 115.68 59.17Q115.68 59.17 115.71 59.48L115.72 59.48Q115.81 60.27 116.13 63.14Q115.57 63.14 108.11 61.87Q104.32 61.87 96.72 61.73Q89.13 61.59 85.33 61.45Q80.83 60.46 71.83 58.21Q62.83 56.1 58.47 55.12Q54.96 54.42 49.75 54.14Q42.72 53.85 41.6 53.71Q32.74 52.87 28.8 48.23L25.14 48.23Q24.05 49.73 23.57 51.41Q22.4 55.54 25 60.75Q31.46 73.65 31.61 73.58Q31.61 73.58 31.61 73.57L32.03 84.09Q32.17 91.12 32.32 94.78Q37.52 111.51 35.97 118.82Q34.71 124.31 39.63 171.28Q39.91 174.65 39.21 184.78Q38.5 193.92 39.63 198.98Q41.03 205.73 41.6 219.23Q42.3 234.28 43.14 240.6Q43.71 244.26 42.58 255.79Q41.46 266.48 42.02 267.89Q43.42 271.12 44.13 279.14Q44.83 287.85 45.96 291.51Q53.9 316.02 53.97 316ZM158.32 144.56Q167.18 140.34 171.25 137.95Q173.78 136.54 178.14 132.04Q182.93 127.12 184.89 125.71Q193.33 119.81 193.89 117.42Q194.32 116.29 191.36 103.64Q187.57 86.34 186.3 85.64Q181.1 82.12 169.28 81.42Q155.64 80.57 151.71 79.17Q150.44 83.67 151 89.29Q151.57 95.9 151.28 97.59Q147.49 126.42 148.05 130.35L147.77 131.34L147.35 132.18Q147.31 132.28 147.28 132.36Q147.28 132.37 147.27 132.4L147.26 132.41Q147.25 132.42 147.25 132.42Q147.25 132.42 147.25 132.41L147.21 132.46Q147.12 132.71 147.14 132.72Q147.15 132.72 147.21 132.6Q147.21 132.58 147.22 132.57Q147.23 132.55 147.25 132.5Q147.24 132.6 147.21 132.75L147.07 132.75L147.07 132.89Q147.12 132.77 147.13 132.77Q147.15 132.78 147.07 133.03Q146.9 133.36 146.88 133.35Q146.87 133.34 146.92 133.17L146.64 134.01Q143.83 145.96 146.64 150.6Q150.3 148.35 158.32 144.56ZM147.22 132.57Q147.21 132.57 147.21 132.57Q147.2 132.57 147.25 132.42Q147.24 132.48 147.22 132.57ZM147.25 132.5Q147.27 132.44 147.27 132.4L147.35 132.32Q147.29 132.44 147.25 132.5Z" fill="#FFFFFF" fill-opacity="1.000000" fill-rule="evenodd"/>
	<path id="Убрать верхний слой" d="M394 382.281L31 382.281L31 486.281L394 486.281L394 382.281ZM350.779 396.234L341.59 396.234L314.524 473.489L323.713 473.489L350.779 396.234ZM247.463 413.549Q248.876 414.271 250.658 414.271Q252.591 414.271 254.055 413.444Q254.775 413.037 255.382 412.43Q256.187 411.625 256.64 410.655Q257.224 409.407 257.224 407.885Q257.224 406.608 256.744 405.549Q256.269 404.498 255.322 403.661Q254.737 403.138 254.064 402.777Q252.574 401.979 250.658 401.979Q248.876 401.979 247.463 402.702Q246.67 403.108 245.993 403.741Q245.103 404.574 244.634 405.6Q244.111 406.743 244.111 408.125Q244.111 409.508 244.634 410.651Q245.103 411.677 245.993 412.51Q246.67 413.143 247.463 413.549ZM239.04 465.281L239.04 404.442L228.79 404.442L228.79 426.904Q227.541 425.457 226.035 424.364Q224.477 423.233 222.644 422.479Q219.041 420.998 214.697 420.998Q209.297 420.998 204.831 423.04Q204.065 423.39 203.326 423.801Q201.018 425.074 199.167 426.828Q196.971 428.909 195.418 431.668Q195.321 431.84 195.228 432.014Q192.555 436.977 192.555 443.38Q192.555 449.775 195.205 454.761Q195.309 454.957 195.418 455.151Q197.012 458.005 199.283 460.139Q201.09 461.837 203.326 463.079Q204.013 463.459 204.725 463.786Q209.233 465.862 214.697 465.862Q219.201 465.862 222.925 464.3Q224.91 463.472 226.558 462.205Q228.017 461.082 229.211 459.616L229.211 465.281L239.04 465.281ZM141.49 465.121Q144.072 464.38 145.874 462.899L142.991 455.612Q142.695 455.846 142.379 456.049Q140.262 457.414 137.266 457.414Q134.698 457.414 133.183 456.151Q132.95 455.956 132.741 455.732Q131.2 454.05 131.2 450.847L131.2 430.027L142.911 430.027L142.911 421.819L131.2 421.819L131.2 411.809L120.95 411.809L120.95 421.819L113.723 421.819L113.723 423.512Q111.61 422.65 108.903 422.039Q104.398 420.998 99.8938 420.998Q91.0451 420.998 85.8401 424.742Q83.0663 426.726 81.7707 429.421Q80.635 431.783 80.635 434.691Q80.635 439.201 82.8591 441.828Q82.9847 441.976 83.1174 442.119Q84.607 443.704 86.4158 444.721Q87.6457 445.413 89.0232 445.842Q92.4265 446.903 97.8518 447.724Q103.017 448.545 105.339 449.466Q106.683 449.983 107.256 450.954Q107.681 451.676 107.681 452.649Q107.681 453.703 107.247 454.527Q105.683 457.494 98.4924 457.494Q94.4885 457.494 90.3445 456.312Q86.2004 455.111 83.2575 453.149L79.3137 460.937Q82.3567 463.059 87.4216 464.46Q89.0246 464.902 90.6534 465.205Q94.1916 465.862 97.8518 465.862Q107.021 465.862 112.346 462.178Q115.368 460.084 116.681 457.21Q117.691 455 117.691 452.329Q117.691 447.833 115.46 445.31Q115.366 445.204 115.269 445.102Q114.099 443.874 112.71 442.992Q111.222 442.047 109.483 441.498Q106.12 440.437 100.875 439.616Q95.6296 438.715 93.1272 437.694Q91.6659 437.086 91.058 436.001Q90.6247 435.227 90.6247 434.211Q90.6247 433.516 90.8536 432.908Q91.3569 431.57 92.967 430.647Q95.3093 429.286 99.8137 429.286Q105.098 429.286 109.588 431.175Q111.017 431.776 112.366 432.569L113.723 429.876L113.723 430.027L120.95 430.027L120.95 451.087Q120.95 457.687 124.222 461.415Q124.533 461.769 124.874 462.098Q125.08 462.295 125.295 462.481Q129.194 465.862 136.025 465.862Q138.907 465.862 141.49 465.121ZM51.0465 436.573L79.3341 426.003L79.3341 417.475L41.5372 432.149L41.5372 441.018L79.3341 455.692L79.3341 447.164L51.0465 436.573ZM383.53 441.018L383.53 432.149L345.733 417.475L345.733 426.003L374.021 436.573L345.733 447.164L345.733 455.692L383.53 441.018ZM271.158 463.628Q275.998 465.862 281.87 465.862Q288.111 465.862 293.146 463.397Q293.537 463.206 293.922 462.999Q296.965 461.351 299.244 458.971Q300.952 457.187 302.23 454.991Q302.793 454.029 303.251 453.019Q305.233 448.649 305.233 443.38Q305.233 438.093 303.225 433.73Q302.778 432.756 302.23 431.829Q300.996 429.725 299.36 428.001Q297.044 425.559 293.922 423.881Q293.482 423.643 293.033 423.425Q288.041 420.998 281.87 420.998Q276.066 420.998 271.269 423.196Q270.573 423.516 269.898 423.881Q266.803 425.545 264.492 427.96Q262.827 429.699 261.57 431.829Q261.053 432.71 260.625 433.634Q258.587 438.035 258.587 443.38Q258.587 448.707 260.599 453.116Q261.037 454.076 261.57 454.991Q262.872 457.213 264.61 459.014Q266.882 461.366 269.898 462.999Q270.519 463.333 271.158 463.628ZM189.698 465.281L189.698 421.499L179.468 421.499L179.468 443.64Q179.468 449.906 176.346 453.3Q176.286 453.365 176.225 453.43Q175.4 454.295 174.429 454.94Q171.582 456.833 167.476 456.833Q163.476 456.833 160.954 454.902Q160.384 454.466 159.889 453.93Q157.226 451.007 157.226 445.102L157.226 421.499L146.976 421.499L146.976 446.503Q146.976 455.594 151.511 460.457Q151.759 460.723 152.021 460.977Q152.684 461.619 153.411 462.176Q158.22 465.862 165.855 465.862Q169.492 465.862 172.707 464.696Q173.261 464.496 173.802 464.26Q176.356 463.15 178.322 461.386Q179.193 460.605 179.948 459.696L179.948 465.281L189.698 465.281ZM255.743 421.499L245.493 421.499L245.493 465.281L255.743 465.281L255.743 421.499ZM221.387 455.975Q218.894 457.073 215.918 457.073Q212.996 457.073 210.528 456.015Q209.884 455.74 209.271 455.392Q208.263 454.815 207.398 454.072Q205.738 452.646 204.607 450.607Q202.885 447.484 202.885 443.38Q202.885 439.296 204.607 436.173Q205.764 434.074 207.473 432.625Q208.307 431.919 209.271 431.368Q209.884 431.02 210.528 430.744Q212.996 429.687 215.918 429.687Q218.894 429.687 221.387 430.785Q221.979 431.045 222.544 431.368Q223.571 431.951 224.448 432.707Q226.104 434.132 227.229 436.173Q228.951 439.296 228.951 443.38Q228.951 447.484 227.229 450.607Q226.13 452.588 224.524 453.99Q223.615 454.784 222.544 455.392Q221.979 455.714 221.387 455.975ZM288.138 455.624Q285.386 457.073 281.87 457.073Q278.314 457.073 275.555 455.591Q273.918 454.711 272.561 453.31Q271.751 452.473 271.121 451.518Q268.917 448.175 268.917 443.38Q268.917 438.631 271.092 435.305Q271.732 434.326 272.561 433.47Q273.936 432.042 275.6 431.152Q278.343 429.687 281.87 429.687Q285.357 429.687 288.093 431.12Q289.802 432.015 291.219 433.47Q292.1 434.37 292.77 435.407Q294.902 438.704 294.902 443.38Q294.902 448.103 292.742 451.416Q292.081 452.429 291.219 453.31Q289.821 454.738 288.138 455.624Z" clip-rule="evenodd" fill="#FF2678" fill-opacity="1.000000" fill-rule="evenodd"/>
	<path id="Убрать верхний слой" d="M394 382.281L31 382.281L31 486.281L394 486.281L394 382.281ZM350.779 396.234L341.59 396.234L314.524 473.489L323.713 473.489L350.779 396.234ZM247.463 413.549Q248.876 414.271 250.658 414.271Q252.591 414.271 254.055 413.444Q254.775 413.037 255.382 412.43Q256.187 411.625 256.64 410.655Q257.224 409.407 257.224 407.885Q257.224 406.608 256.744 405.549Q256.269 404.498 255.322 403.661Q254.737 403.138 254.064 402.777Q252.574 401.979 250.658 401.979Q248.876 401.979 247.463 402.702Q246.67 403.108 245.993 403.741Q245.103 404.574 244.634 405.6Q244.111 406.743 244.111 408.125Q244.111 409.508 244.634 410.651Q245.103 411.677 245.993 412.51Q246.67 413.143 247.463 413.549ZM239.04 465.281L239.04 404.442L228.79 404.442L228.79 426.904Q227.541 425.457 226.035 424.364Q224.477 423.233 222.644 422.479Q219.041 420.998 214.697 420.998Q209.297 420.998 204.831 423.04Q204.065 423.39 203.326 423.801Q201.018 425.074 199.167 426.828Q196.971 428.909 195.418 431.668Q195.321 431.84 195.228 432.014Q192.555 436.977 192.555 443.38Q192.555 449.775 195.205 454.761Q195.309 454.957 195.418 455.151Q197.012 458.005 199.283 460.139Q201.09 461.837 203.326 463.079Q204.013 463.459 204.725 463.786Q209.233 465.862 214.697 465.862Q219.201 465.862 222.925 464.3Q224.91 463.472 226.558 462.205Q228.017 461.082 229.211 459.616L229.211 465.281L239.04 465.281ZM141.49 465.121Q144.072 464.38 145.874 462.899L142.991 455.612Q142.695 455.846 142.379 456.049Q140.262 457.414 137.266 457.414Q134.698 457.414 133.183 456.151Q132.95 455.956 132.741 455.732Q131.2 454.05 131.2 450.847L131.2 430.027L142.911 430.027L142.911 421.819L131.2 421.819L131.2 411.809L120.95 411.809L120.95 421.819L113.723 421.819L113.723 423.512Q111.61 422.65 108.903 422.039Q104.398 420.998 99.8938 420.998Q91.0451 420.998 85.8401 424.742Q83.0663 426.726 81.7707 429.421Q80.635 431.783 80.635 434.691Q80.635 439.201 82.8591 441.828Q82.9847 441.976 83.1174 442.119Q84.607 443.704 86.4158 444.721Q87.6457 445.413 89.0232 445.842Q92.4265 446.903 97.8518 447.724Q103.017 448.545 105.339 449.466Q106.683 449.983 107.256 450.954Q107.681 451.676 107.681 452.649Q107.681 453.703 107.247 454.527Q105.683 457.494 98.4924 457.494Q94.4885 457.494 90.3445 456.312Q86.2004 455.111 83.2575 453.149L79.3137 460.937Q82.3567 463.059 87.4216 464.46Q89.0246 464.902 90.6534 465.205Q94.1916 465.862 97.8518 465.862Q107.021 465.862 112.346 462.178Q115.368 460.084 116.681 457.21Q117.691 455 117.691 452.329Q117.691 447.833 115.46 445.31Q115.366 445.204 115.269 445.102Q114.099 443.874 112.71 442.992Q111.222 442.047 109.483 441.498Q106.12 440.437 100.875 439.616Q95.6296 438.715 93.1272 437.694Q91.6659 437.086 91.058 436.001Q90.6247 435.227 90.6247 434.211Q90.6247 433.516 90.8536 432.908Q91.3569 431.57 92.967 430.647Q95.3093 429.286 99.8137 429.286Q105.098 429.286 109.588 431.175Q111.017 431.776 112.366 432.569L113.723 429.876L113.723 430.027L120.95 430.027L120.95 451.087Q120.95 457.687 124.222 461.415Q124.533 461.769 124.874 462.098Q125.08 462.295 125.295 462.481Q129.194 465.862 136.025 465.862Q138.907 465.862 141.49 465.121ZM51.0465 436.573L79.3341 426.003L79.3341 417.475L41.5372 432.149L41.5372 441.018L79.3341 455.692L79.3341 447.164L51.0465 436.573ZM383.53 441.018L383.53 432.149L345.733 417.475L345.733 426.003L374.021 436.573L345.733 447.164L345.733 455.692L383.53 441.018ZM271.158 463.628Q275.998 465.862 281.87 465.862Q288.111 465.862 293.146 463.397Q293.537 463.206 293.922 462.999Q296.965 461.351 299.244 458.971Q300.952 457.187 302.23 454.991Q302.793 454.029 303.251 453.019Q305.233 448.649 305.233 443.38Q305.233 438.093 303.225 433.73Q302.778 432.756 302.23 431.829Q300.996 429.725 299.36 428.001Q297.044 425.559 293.922 423.881Q293.482 423.643 293.033 423.425Q288.041 420.998 281.87 420.998Q276.066 420.998 271.269 423.196Q270.573 423.516 269.898 423.881Q266.803 425.545 264.492 427.96Q262.827 429.699 261.57 431.829Q261.053 432.71 260.625 433.634Q258.587 438.035 258.587 443.38Q258.587 448.707 260.599 453.116Q261.037 454.076 261.57 454.991Q262.872 457.213 264.61 459.014Q266.882 461.366 269.898 462.999Q270.519 463.333 271.158 463.628ZM189.698 465.281L189.698 421.499L179.468 421.499L179.468 443.64Q179.468 449.906 176.346 453.3Q176.286 453.365 176.225 453.43Q175.4 454.295 174.429 454.94Q171.582 456.833 167.476 456.833Q163.476 456.833 160.954 454.902Q160.384 454.466 159.889 453.93Q157.226 451.007 157.226 445.102L157.226 421.499L146.976 421.499L146.976 446.503Q146.976 455.594 151.511 460.457Q151.759 460.723 152.021 460.977Q152.684 461.619 153.411 462.176Q158.22 465.862 165.855 465.862Q169.492 465.862 172.707 464.696Q173.261 464.496 173.802 464.26Q176.356 463.15 178.322 461.386Q179.193 460.605 179.948 459.696L179.948 465.281L189.698 465.281ZM255.743 421.499L245.493 421.499L245.493 465.281L255.743 465.281L255.743 421.499ZM221.387 455.975Q218.894 457.073 215.918 457.073Q212.996 457.073 210.528 456.015Q209.884 455.74 209.271 455.392Q208.263 454.815 207.398 454.072Q205.738 452.646 204.607 450.607Q202.885 447.484 202.885 443.38Q202.885 439.296 204.607 436.173Q205.764 434.074 207.473 432.625Q208.307 431.919 209.271 431.368Q209.884 431.02 210.528 430.744Q212.996 429.687 215.918 429.687Q218.894 429.687 221.387 430.785Q221.979 431.045 222.544 431.368Q223.571 431.951 224.448 432.707Q226.104 434.132 227.229 436.173Q228.951 439.296 228.951 443.38Q228.951 447.484 227.229 450.607Q226.13 452.588 224.524 453.99Q223.615 454.784 222.544 455.392Q221.979 455.714 221.387 455.975ZM288.138 455.624Q285.386 457.073 281.87 457.073Q278.314 457.073 275.555 455.591Q273.918 454.711 272.561 453.31Q271.751 452.473 271.121 451.518Q268.917 448.175 268.917 443.38Q268.917 438.631 271.092 435.305Q271.732 434.326 272.561 433.47Q273.936 432.042 275.6 431.152Q278.343 429.687 281.87 429.687Q285.357 429.687 288.093 431.12Q289.802 432.015 291.219 433.47Q292.1 434.37 292.77 435.407Q294.902 438.704 294.902 443.38Q294.902 448.103 292.742 451.416Q292.081 452.429 291.219 453.31Q289.821 454.738 288.138 455.624Z" clip-rule="evenodd" fill="url(#paint_linear_7_86_0)" fill-opacity="1.000000" fill-rule="evenodd"/>
</svg>
